<svg width="43" height="25" viewBox="0 0 43 25" fill="none" xmlns="http://www.w3.org/2000/svg">
<path d="M26.7501 12.3196L16.6398 0.774124M22.5992 12.3196L12.4888 0.774124L22.5992 12.3196ZM22.5992 12.3196L12.4888 23.8651L22.5992 12.3196ZM18.4482 12.3196L8.33786 0.774124L18.4482 12.3196ZM18.4482 12.3196L8.33786 23.8651L18.4482 12.3196ZM14.2972 12.3196L4.18687 0.774124L14.2972 12.3196ZM14.2972 12.3196L4.18687 23.8651L14.2972 12.3196ZM10.1462 12.3196L0.0358887 0.774124L10.1462 12.3196ZM10.1462 12.3196L0.0358887 23.8651L10.1462 12.3196Z" stroke="#1798E8" stroke-miterlimit="10"/>
<path d="M3.37607e-06 11.8368H42.414" stroke="#1798E8" stroke-linejoin="round"/>
<path d="M26.6679 12.3195L16.5781 23.865" stroke="#1798E8" stroke-miterlimit="10"/>
</svg>
