<svg width="190" height="32" viewBox="0 0 190 32" fill="none" xmlns="http://www.w3.org/2000/svg">
<path d="M29.7528 27.8089C31.033 26.9702 32.3131 25.999 32.3131 24.0126V11.7848L30.3708 9.71006L29.6204 10.4605L31.2978 12.2704V23.9684C31.2978 25.6018 30.6798 26.7936 29.7087 27.6324L29.7528 27.8089ZM22.2926 1.89665L22.2484 2.02908C22.8223 2.2498 23.5286 2.82367 23.5286 3.9714V21.982L22.8223 22.6883L25.5592 24.9837L26.3538 24.3216L24.1466 22.5117L24.5439 22.1586V4.14797C24.5439 2.69124 23.2637 1.98494 22.2926 1.89665ZM23.9259 29.045C27.3691 28.7801 30.8123 27.6324 30.8123 23.9684V12.447L29.2231 10.8578L27.5015 12.5353V21.1874L28.9141 22.4676L25.6475 25.4252H25.3385L22.116 22.6883L22.9989 21.8054V4.14797C22.9989 2.82367 21.8511 2.11737 21.189 1.94079V1.67593C21.498 1.49936 21.9835 1.41107 22.6016 1.41107C23.7051 1.41107 24.7205 2.07323 25.0295 2.82367H25.1177C25.7799 1.80836 26.8393 1.41107 27.8546 1.41107C28.1636 1.41107 28.5168 1.45522 28.8699 1.5435V1.89665C28.2961 2.07323 27.4574 2.77952 27.4574 4.50112V11.829L31.6951 7.76775H32.0041C32.3131 8.07675 34.1672 9.75421 34.5203 9.97493C34.6969 10.0632 34.9176 10.1515 35.1383 10.1515C35.4915 10.1515 35.7563 10.0191 36.0212 9.88664V10.3722C35.6681 10.6812 35.2708 11.2551 35.2708 11.9614V21.9378C35.2708 26.3522 30.415 29.045 23.8817 29.4864V29.045H23.9259Z" fill="#222222"/>
<path d="M43.9698 9.09268L43.0869 9.71069C44.1022 10.8584 45.3382 12.3593 46.6184 13.7719L47.5013 13.1539C46.2652 11.7413 44.9851 10.2404 43.9698 9.09268ZM42.9986 16.1556L46.177 13.9926C45.0734 12.7125 43.9256 11.3881 42.9986 10.3287V16.1556ZM45.0292 23.5276C43.0869 22.6448 41.3653 21.9826 39.8644 21.1439C39.9527 20.57 39.9969 19.9079 39.9969 18.0538V10.8143L38.9816 11.344V18.098C38.9816 19.952 38.9374 21.1439 38.7608 21.6736C40.2617 22.5123 42.3806 23.3952 44.3229 24.2781L45.0292 23.5276ZM38.4518 11.035C40.35 10.108 43.1752 8.43052 45.0734 7.06207H45.4265C46.6625 8.34224 48.4724 10.417 50.0616 11.8296V12.1827L42.9986 16.7737V19.643C43.7491 20.1286 45.7797 21.1439 47.0157 21.5853L49.885 18.8484L50.2382 19.2016L44.4995 24.7636H44.1463C42.204 23.9249 39.732 22.8655 38.1428 21.9826C38.3194 21.3646 38.496 19.9079 38.496 18.098V11.035H38.4518Z" fill="#222222"/>
<path d="M183.732 26.3979C185.012 25.5591 186.292 24.588 186.292 22.6015V10.3737L184.35 8.29899L183.599 9.04943L185.277 10.8593V22.5574C185.277 24.1907 184.659 25.3826 183.687 26.2213L183.732 26.3979ZM176.227 0.485579L176.183 0.61801C176.757 0.838728 177.463 1.41259 177.463 2.56033V20.5709L176.757 21.2772L179.494 23.5727L180.288 22.9105L178.081 21.1006L178.478 20.7475V2.7369C178.478 1.28016 177.198 0.61801 176.227 0.485579ZM177.86 27.6339C181.304 27.369 184.747 26.2213 184.747 22.5574V11.0359L183.202 9.44673L181.48 11.1242V19.7763L182.893 21.0565L179.626 23.97H179.317L176.095 21.2331L176.978 20.3502V2.7369C176.978 1.41259 175.83 0.706297 175.168 0.529723V0.264861C175.477 0.0882871 175.962 0 176.58 0C177.684 0 178.699 0.662154 179.008 1.41259H179.097C179.759 0.397292 180.818 0 181.833 0C182.142 0 182.496 0.0441436 182.849 0.132431V0.485579C182.275 0.662154 181.436 1.36845 181.436 3.09005V10.4179L185.674 6.35668H185.983C186.292 6.66568 188.146 8.34314 188.499 8.56385C188.676 8.65214 188.896 8.74043 189.117 8.74043C189.47 8.74043 189.735 8.608 190 8.47557V9.04943C189.647 9.35844 189.25 9.93231 189.25 10.6386V20.5268C189.25 24.9411 184.394 27.6339 177.86 28.0753V27.6339Z" fill="#222222"/>
<path d="M86.3026 9.13682L85.4197 9.75483C86.435 10.9026 87.671 12.4034 88.9512 13.816L89.8341 13.198C88.5539 11.7854 87.3179 10.2404 86.3026 9.13682ZM85.3314 16.1557L88.5098 13.9926C87.4062 12.7125 86.2584 11.3881 85.3314 10.3287V16.1557ZM87.4062 23.5276C85.4639 22.6448 83.7423 21.9826 82.2414 21.1439C82.3297 20.57 82.3738 19.9079 82.3738 18.0538V10.8143L81.3585 11.344V18.098C81.3585 19.952 81.3144 21.1439 81.1378 21.6736C82.6387 22.5123 84.7576 23.3952 86.6999 24.2781L87.4062 23.5276ZM80.8288 11.035C82.727 10.108 85.5963 8.43052 87.4503 7.06207H87.8035C89.0395 8.34224 90.8494 10.417 92.4385 11.8296V12.1827L85.3756 16.7737V19.643C86.126 20.1286 88.1566 21.1439 89.3926 21.5853L92.262 18.8484L92.6151 19.2016L86.8764 24.7636H86.5233C84.581 23.9249 82.1089 22.8655 80.5198 21.9826C80.6963 21.3646 80.8729 19.9079 80.8729 18.098V11.035H80.8288Z" fill="#222222"/>
<path d="M98.3109 22.7781C97.0307 22.4249 95.7506 21.5862 95.7506 19.7763V3.70806L94.338 2.25132L93.5434 3.00176L94.6911 4.19364V20.2178C94.6911 22.0276 96.1478 23.2195 97.5163 23.5285L98.3109 22.7781ZM98.7523 2.33961V19.4232C98.7523 20.1736 99.4586 20.8358 100.121 20.9682L101.136 19.9529L101.445 20.306L97.7812 24.0141H97.5604C96.1478 23.7051 94.2055 22.4691 94.2055 20.306V4.41436L93.1902 3.39905L92.1308 4.4585L91.8218 4.10535L95.883 0H96.1478L98.7523 2.33961Z" fill="#222222"/>
<path d="M108.951 9.09268L108.068 9.71069C109.083 10.8584 110.319 12.3593 111.599 13.7719L112.482 13.1539C111.246 11.7413 110.01 10.2404 108.951 9.09268ZM107.98 16.1557L111.158 13.9926C110.054 12.7125 108.907 11.3881 107.98 10.3287V16.1557ZM110.01 23.5276C108.068 22.6448 106.346 21.9826 104.845 21.1439C104.934 20.57 104.978 19.9079 104.978 18.0538V10.8143L103.963 11.344V18.098C103.963 19.952 103.918 21.1439 103.742 21.6736C105.243 22.5123 107.362 23.3952 109.304 24.2781L110.01 23.5276ZM103.433 11.035C105.331 10.108 108.2 8.43052 110.054 7.06207H110.407C111.643 8.34224 113.453 10.417 115.043 11.8296V12.1827L107.98 16.7737V19.643C108.73 20.1286 110.761 21.1439 111.997 21.5853L114.866 18.8484L115.219 19.2016L109.48 24.7636H109.127C107.185 23.9249 104.713 22.8655 103.124 21.9826C103.344 21.3646 103.477 19.9079 103.477 18.098V11.035H103.433Z" fill="#222222"/>
<path d="M138.217 10.2404C138.791 10.7701 139.585 11.5206 140.247 12.0944L140.91 11.344C140.292 10.7701 139.32 9.93141 138.835 9.48997L138.217 10.2404ZM136.495 23.4835C135.171 23.1303 133.891 22.2916 133.891 20.4817V10.726L132.478 9.3134L131.684 10.0638L132.831 11.2557V20.9232C132.831 22.733 134.288 23.9249 135.656 24.2339L136.495 23.4835ZM136.892 11.7413V20.1286C136.892 20.879 137.555 21.5412 138.261 21.6736L139.276 20.6583L139.585 21.0114L135.921 24.7195H135.701C134.332 24.4105 132.39 23.1745 132.39 21.0114V11.4764L131.375 10.4611L130.315 11.5206L129.962 11.1674L134.023 7.06207H134.332L136.937 9.57826V10.9909L140.203 7.06207H140.512C141.174 7.72423 142.19 8.73953 143.117 9.40168V9.44583L140.38 12.7125H140.292C139.541 12.0503 138.482 11.1233 137.952 10.5494L136.892 11.7413Z" fill="#222222"/>
<path d="M151.64 20.7466V15.5376C150.625 15.2728 149.565 14.8313 148.55 14.3458V20.7907L150.36 21.9385L151.64 20.7466ZM155.79 23.5276C154.554 23.0421 153.229 22.1592 153.229 20.3934V11.4323L148.329 8.96025C148.197 9.04853 147.623 9.44583 147.446 9.57826L152.214 12.0503V20.7907C152.214 22.4682 153.759 23.7925 155.039 24.2339L155.79 23.5276ZM151.64 15.0521V12.3593L147.005 9.88726C146.652 10.1521 145.416 10.9026 145.019 11.1233C146.122 12.58 148.991 14.3899 151.64 15.0521ZM148.859 23.4393L145.592 21.2322V16.4205L144.577 17.171V21.8502L148.109 24.1898L148.859 23.4393ZM148.02 24.7195L144.092 22.115V16.9502C145.107 16.2439 147.137 14.8313 148.153 14.125C146.608 13.2863 145.283 12.271 144.489 11.2557V10.9026C146.828 9.57826 148.506 8.34224 149.919 7.06207H150.228C150.228 7.06207 155.083 9.35754 155.304 9.44583C155.569 9.57826 155.79 9.66654 156.054 9.66654C156.408 9.66654 156.672 9.57826 157.026 9.40168V9.93141C156.672 10.1963 156.275 10.6818 156.275 11.4323V20.0403C156.275 20.9232 157.07 21.5412 157.688 21.6736L158.703 20.6583L159.012 21.0114L155.348 24.7195H155.127C153.715 24.3222 152.126 22.9538 151.861 21.3205L148.373 24.7195H148.02Z" fill="#222222"/>
<path d="M123.43 20.7024V11.7413L120.163 10.3287V20.5259L122.238 21.8943L123.43 20.7024ZM124.931 10.726L120.119 8.69539V9.75483L123.916 11.3881V21.2322C123.916 23.3511 124.843 25.6465 126.255 27.4123L127.006 26.6618C125.77 25.0285 124.931 23.2186 124.931 21.0556V10.726ZM119.81 24.1456L120.605 23.3952L117.162 21.188V10.6818L116.146 11.3881V21.7177L119.81 24.1456ZM118.398 28.3393C117.118 28.3393 116.014 28.9131 115.352 29.796V29.9726C116.102 29.5312 117.029 29.2663 118.398 29.2663C120.075 29.2663 122.238 29.7519 123.474 30.414L124.136 29.6194C122.724 28.9131 120.649 28.3393 118.398 28.3393ZM115.617 21.9385V11.0791L121.399 7.06207H121.753C122.9 7.54765 126.564 9.13682 127.05 9.3134C127.226 9.40168 127.447 9.44583 127.668 9.44583C128.021 9.44583 128.418 9.3134 128.771 9.13682V9.75483C128.418 10.0638 127.977 10.726 127.977 11.2557V20.4817C127.977 22.6448 128.462 23.9249 129.301 24.7636V25.1168C128.021 26.397 125.108 29.4429 123.783 31.032H123.563C122.327 30.3257 120.208 29.7519 118.486 29.7519C117.206 29.7519 115.749 30.105 114.69 30.9437L114.425 30.723C115.44 28.3834 117.559 26.088 120.252 26.088C121.929 26.088 124.136 26.7943 126.035 27.8096C124.754 26.3528 123.563 23.6601 123.563 21.4087L120.163 24.6754H119.899L115.617 21.9385Z" fill="#222222"/>
<path d="M167.178 9.93141L168.943 11.653V21.0997L169.959 20.5259V11.1233L167.972 9.13682L167.178 9.93141ZM167.884 24.4988C168.061 24.2339 168.414 23.8808 168.634 23.6601L165.103 22.9096V23.8808L167.884 24.4988ZM168.414 21.1439V11.7854L166.869 10.1963L165.147 11.8296V20.4817C165.853 20.6583 167.972 21.0556 168.414 21.1439ZM161.13 27.5447L160.424 28.2068L163.028 30.4582L163.823 29.7519L161.748 28.0303L162.101 27.6771V10.8584L160.644 9.40168L159.894 10.1521L161.042 11.344V27.5447H161.13ZM165.103 11.1233L169.341 7.06207H169.65C169.959 7.37108 171.901 9.13682 172.21 9.3134C172.387 9.40168 172.607 9.44583 172.784 9.44583C173.137 9.44583 173.402 9.3134 173.667 9.18097V9.79898C173.314 10.0638 172.916 10.6818 172.916 11.3881V21.806C171.106 22.2475 169.65 23.2186 168.061 25.0727H167.928L165.103 24.4546V26.7501L166.56 28.0744L163.116 30.9438H162.94L159.673 28.2068L160.556 27.2798V23.4393C160.203 23.3952 159.541 23.2628 159.232 23.1745V22.6889C159.629 22.5123 160.644 21.5412 160.644 20.7024V11.5206L159.629 10.5053L158.57 11.5647L158.217 11.2116L162.234 7.10622H162.543L165.103 9.6224V11.1233Z" fill="#222222"/>
<path d="M9.93282 16.1124L9.88868 11.6098L8.87338 12.3161V16.5538C8.87338 17.0394 8.78509 17.3926 8.65266 17.7016H8.78509C9.4031 17.3043 9.93282 16.6863 9.93282 16.1124ZM4.72388 9.04944C3.26714 10.5062 1.89869 12.5368 1.89869 15.1412C1.89869 21.2772 6.04819 24.3673 11.2571 24.3673C14.5238 24.3673 16.7751 22.6015 18.0994 21.2772L18.0111 21.1448C16.4661 22.3808 14.3913 23.352 11.2571 23.352C7.01935 23.352 2.95814 20.7475 2.95814 15.1412C2.95814 12.8899 3.75272 10.6827 4.81217 9.18187L4.72388 9.04944ZM15.9363 6.62154C12.0076 6.62154 8.52023 4.67922 5.6509 4.67922C3.84101 4.67922 1.72212 5.42966 0.971677 7.54855L1.10411 7.5927C1.98698 6.13596 3.9293 5.65038 5.69504 5.65038C8.56437 5.65038 12.0517 7.5927 15.9805 7.5927C19.1147 7.5927 20.9687 6.53325 21.2777 4.01707L21.1011 3.97292C20.5714 5.95938 19.0705 6.62154 15.9363 6.62154ZM1.36897 15.0971C1.36897 10.9476 4.50316 8.07828 7.46078 6.75397L7.6815 7.01883C6.62205 8.25485 5.87161 9.44673 5.87161 11.9629C5.87161 14.8322 6.62206 16.8629 7.81393 18.1872C8.21122 17.7457 8.43194 17.0394 8.43194 16.4214V12.0953L13.7292 8.29899L13.9499 8.608C13.4643 9.27015 13.1994 9.88816 13.1994 10.9035V13.6845C13.1994 15.6268 10.0653 17.6574 8.07879 18.452C9.35896 19.7322 11.213 20.2619 13.1553 20.2619C13.9057 20.2619 14.5238 20.2178 15.0976 20.1295V8.07828C13.376 7.98999 11.7427 7.50441 10.2418 7.10712C8.65266 6.62154 7.01935 6.22425 5.60675 6.22425C3.532 6.22425 0.927533 6.93054 0.883389 10.0206C0.883389 10.2855 0.927533 10.5945 0.971677 10.9035L0.574384 11.0359C0.221236 10.1089 0.000517877 9.18187 0.000517877 8.25485C-0.0436257 4.50265 2.73742 1.19188 7.15178 1.19188C9.00581 1.19188 10.7716 1.67746 12.3166 2.07475C13.994 2.56033 15.5832 2.95762 17.2607 2.95762C18.0994 2.95762 18.585 2.51618 18.585 1.7216C18.585 0.927015 18.1877 0.529723 17.5697 0.353149L17.6138 0C19.512 0.353149 21.5867 1.45674 21.5867 3.84049C21.5867 6.70983 19.512 8.07828 15.9805 8.07828H15.6273V20.0412C17.967 19.5998 19.4678 18.4962 20.6597 16.6863L21.0129 16.907C19.7327 20.9682 16.6868 24.8528 11.3013 24.8528C5.82747 24.8528 1.36897 21.6745 1.36897 15.0971Z" fill="#222222"/>
<path d="M67.9381 16.1565L67.894 11.6539L66.8787 12.3602V16.598C66.8787 17.0836 66.7904 17.4367 66.6579 17.7457H66.7904C67.4525 17.3484 67.9381 16.7304 67.9381 16.1565ZM62.7292 9.09358C61.2724 10.5503 59.904 12.5809 59.904 15.1854C59.904 21.3213 64.0535 24.4114 69.2624 24.4114C72.529 24.4114 74.7804 22.6457 76.1047 21.3213L76.0164 21.1889C74.4714 22.4249 72.3966 23.3961 69.2624 23.3961C65.0246 23.3961 60.9634 20.7916 60.9634 15.1854C60.9634 12.9341 61.758 10.7269 62.8174 9.22601L62.7292 9.09358ZM73.9416 6.66568C70.0129 6.66568 66.5255 4.72336 63.6562 4.72336C61.8463 4.72336 59.7274 5.4738 58.977 7.5927L59.1094 7.63684C59.9923 6.1801 61.9346 5.69452 63.7003 5.69452C66.5696 5.69452 70.057 7.63684 73.9858 7.63684C77.12 7.63684 78.974 6.57739 79.283 4.06121L79.1064 4.01707C78.6208 6.00353 77.12 6.66568 73.9416 6.66568ZM59.3742 15.1412C59.3742 10.9918 62.5084 8.12242 65.4661 6.79811L65.6868 7.06297C64.6273 8.29899 63.8769 9.49087 63.8769 12.0071C63.8769 14.8764 64.6273 16.907 65.8192 18.2313C66.2165 17.7899 66.4372 17.0836 66.4372 16.4656V12.1395L71.7345 8.34314L71.9552 8.65214C71.4696 9.31429 71.2047 9.93231 71.2047 10.9476V13.7287C71.2047 15.671 68.0705 17.7016 66.0841 18.4962C67.3642 19.7763 69.2183 20.306 71.1606 20.306C71.911 20.306 72.529 20.2619 73.1029 20.1736V8.12242C71.3813 8.03413 69.748 7.54855 68.2471 7.15126C66.6579 6.66568 65.0246 6.26839 63.612 6.26839C61.4931 6.26839 58.8887 7.01883 58.8445 10.0647C58.8445 10.3296 58.8887 10.6386 58.8887 10.9476L58.4914 11.08C58.1382 10.1089 57.9175 9.18186 57.9175 8.25485C57.8734 4.50265 60.6544 1.23602 65.0688 1.23602C66.9228 1.23602 68.6885 1.7216 70.2336 2.11889C71.911 2.60447 73.5002 3.00176 75.1776 3.00176C76.0164 3.00176 76.502 2.56033 76.502 1.76574C76.502 0.971159 76.1047 0.573867 75.4867 0.397292L75.5308 0C77.429 0.353149 79.5037 1.45674 79.5037 3.84049C79.5037 6.70982 77.429 8.07828 73.8975 8.07828H73.5443V20.0412C75.8839 19.5997 77.3848 18.4962 78.5767 16.6863L78.9299 16.907C77.6497 20.9682 74.6038 24.8528 69.2183 24.8528C63.8327 24.897 59.3742 21.7186 59.3742 15.1412Z" fill="#222222"/>
</svg>
