<svg width="16" height="17" viewBox="0 0 16 17" fill="none" xmlns="http://www.w3.org/2000/svg">
<path d="M13.5811 3.05334C10.5062 -0.02052 5.46662 0.0648644 2.39165 3.22411C-0.0854153 5.70027 -0.597911 9.62798 1.11041 12.7018L0 16.8003L4.18538 15.6903C5.3812 16.288 6.66244 16.6296 7.94368 16.6296C12.2999 16.6296 15.8874 13.1288 15.8874 8.68875C15.9728 6.63951 15.1186 4.59027 13.5811 3.05334ZM7.94368 15.3488C6.74786 15.3488 5.63745 15.0072 4.61246 14.4095L4.35621 14.2388L1.87915 14.9219L2.56248 12.4457L2.39165 12.1895C0.512496 9.11567 1.45207 5.01719 4.52704 3.13872C7.60202 1.26025 11.702 2.19949 13.5811 5.27335C15.4603 8.34721 14.5207 12.4457 11.4457 14.3242C10.4207 15.0072 9.22492 15.3488 7.94368 15.3488ZM11.6166 10.3964C11.4457 10.3111 10.4207 9.79875 10.2499 9.71337C10.0791 9.62798 9.90825 9.62798 9.82283 9.79875C9.73741 9.96952 9.31033 10.4818 9.22492 10.5672C9.1395 10.6526 8.96867 10.738 8.79784 10.6526C8.19993 10.3964 7.68743 10.0549 7.26035 9.62798C6.83327 9.20106 6.49161 8.77413 6.14994 8.26182C6.06453 8.09105 6.14995 7.92028 6.23536 7.8349C6.32078 7.74951 6.40619 7.57874 6.57702 7.49336C6.66244 7.40797 6.74786 7.32259 6.74786 7.15182C6.83327 7.06643 6.83327 6.89566 6.74786 6.81028C6.66244 6.72489 6.32078 5.70027 6.14994 5.35873C5.97911 5.01719 5.80828 5.0172 5.72287 5.0172H5.3812C5.21037 5.0172 4.95412 5.10258 4.86871 5.27335C4.44163 5.70027 4.18538 6.29797 4.18538 6.89566C4.2708 7.66413 4.52704 8.34721 4.95412 8.9449C5.80828 10.2257 7.0041 11.2503 8.37076 11.9334C8.71242 12.1041 9.1395 12.2749 9.48116 12.3603C9.90824 12.4457 10.3353 12.5311 10.7624 12.4457C11.3603 12.3603 11.7874 12.0188 12.1291 11.5065C12.2999 11.2503 12.2999 10.9088 12.2145 10.5672C11.9582 10.4818 11.7874 10.4818 11.6166 10.3964Z" fill="white"/>
</svg>
